<?xml version="1.0" encoding="UTF-8" standalone="no"?><svg xmlns="http://www.w3.org/2000/svg" xmlns:xlink="http://www.w3.org/1999/xlink" contentStyleType="text/css" height="738px" preserveAspectRatio="none" style="width:2011px;height:738px;background:#FFFFFF;" version="1.1" viewBox="0 0 2011 738" width="2011px" zoomAndPan="magnify"><defs/><g><!--MD5=[6715f46a36203688ef12a3337d474df8]
class StringHelper--><g id="elem_StringHelper"><rect codeLine="1" fill="#F1F1F1" height="48" id="StringHelper" rx="2.5" ry="2.5" style="stroke:#181818;stroke-width:0.5;" width="117" x="478.5" y="23.5"/><ellipse cx="493.5" cy="39.5" fill="#ADD1B2" rx="11" ry="11" style="stroke:#181818;stroke-width:1.0;"/><path d="M496.4688,45.1406 Q495.8906,45.4375 495.25,45.5781 Q494.6094,45.7344 493.9063,45.7344 Q491.4063,45.7344 490.0781,44.0938 Q488.7656,42.4375 488.7656,39.3125 Q488.7656,36.1875 490.0781,34.5313 Q491.4063,32.875 493.9063,32.875 Q494.6094,32.875 495.25,33.0313 Q495.9063,33.1875 496.4688,33.4844 L496.4688,36.2031 Q495.8438,35.625 495.25,35.3594 Q494.6563,35.0781 494.0313,35.0781 Q492.6875,35.0781 492,36.1563 Q491.3125,37.2188 491.3125,39.3125 Q491.3125,41.4063 492,42.4844 Q492.6875,43.5469 494.0313,43.5469 Q494.6563,43.5469 495.25,43.2813 Q495.8438,43 496.4688,42.4219 L496.4688,45.1406 Z " fill="#000000"/><text fill="#000000" font-family="sans-serif" font-size="14" lengthAdjust="spacing" textLength="85" x="507.5" y="44.3467">StringHelper</text><line style="stroke:#181818;stroke-width:0.5;" x1="479.5" x2="594.5" y1="55.5" y2="55.5"/><line style="stroke:#181818;stroke-width:0.5;" x1="479.5" x2="594.5" y1="63.5" y2="63.5"/></g><!--MD5=[c038cd50c169f80cc2d80bae93f5198c]
class IApiConverter--><g id="elem_IApiConverter"><rect codeLine="3" fill="#F1F1F1" height="96.8906" id="IApiConverter" rx="2.5" ry="2.5" style="stroke:#181818;stroke-width:0.5;" width="224" x="881" y="164"/><ellipse cx="940.75" cy="180" fill="#B4A7E5" rx="11" ry="11" style="stroke:#181818;stroke-width:1.0;"/><path d="M936.6719,175.7656 L936.6719,173.6094 L944.0625,173.6094 L944.0625,175.7656 L941.5938,175.7656 L941.5938,183.8438 L944.0625,183.8438 L944.0625,186 L936.6719,186 L936.6719,183.8438 L939.1406,183.8438 L939.1406,175.7656 L936.6719,175.7656 Z " fill="#000000"/><text fill="#000000" font-family="sans-serif" font-size="14" font-style="italic" lengthAdjust="spacing" textLength="96" x="961.25" y="184.8467">IApiConverter</text><line style="stroke:#181818;stroke-width:0.5;" x1="882" x2="1104" y1="196" y2="196"/><line style="stroke:#181818;stroke-width:0.5;" x1="882" x2="1104" y1="204" y2="204"/><text fill="#000000" font-family="sans-serif" font-size="14" lengthAdjust="spacing" textLength="212" x="887" y="220.9951">ConvertLine(line:string) : string</text><text fill="#000000" font-family="sans-serif" font-size="14" lengthAdjust="spacing" textLength="152" x="887" y="237.292">GetPreamble() : string</text><text fill="#000000" font-family="sans-serif" font-size="14" lengthAdjust="spacing" textLength="160" x="887" y="253.5889">GetPostamble() : string</text></g><!--MD5=[76865c731a975e255015bfa8e38026a2]
class FuncAndArgs--><g id="elem_FuncAndArgs"><rect codeLine="8" fill="#F1F1F1" height="80.5938" id="FuncAndArgs" rx="2.5" ry="2.5" style="stroke:#181818;stroke-width:0.5;" width="154" x="631" y="7"/><ellipse cx="659.5" cy="23" fill="#ADD1B2" rx="11" ry="11" style="stroke:#181818;stroke-width:1.0;"/><path d="M662.4688,28.6406 Q661.8906,28.9375 661.25,29.0781 Q660.6094,29.2344 659.9063,29.2344 Q657.4063,29.2344 656.0781,27.5938 Q654.7656,25.9375 654.7656,22.8125 Q654.7656,19.6875 656.0781,18.0313 Q657.4063,16.375 659.9063,16.375 Q660.6094,16.375 661.25,16.5313 Q661.9063,16.6875 662.4688,16.9844 L662.4688,19.7031 Q661.8438,19.125 661.25,18.8594 Q660.6563,18.5781 660.0313,18.5781 Q658.6875,18.5781 658,19.6563 Q657.3125,20.7188 657.3125,22.8125 Q657.3125,24.9063 658,25.9844 Q658.6875,27.0469 660.0313,27.0469 Q660.6563,27.0469 661.25,26.7813 Q661.8438,26.5 662.4688,25.9219 L662.4688,28.6406 Z " fill="#000000"/><text fill="#000000" font-family="sans-serif" font-size="14" lengthAdjust="spacing" textLength="92" x="676.5" y="27.8467">FuncAndArgs</text><line style="stroke:#181818;stroke-width:0.5;" x1="632" x2="784" y1="39" y2="39"/><ellipse cx="642" cy="50" fill="none" rx="3" ry="3" style="stroke:#038048;stroke-width:1.0;"/><text fill="#000000" font-family="sans-serif" font-size="14" lengthAdjust="spacing" textLength="112" x="651" y="55.9951">Function : string</text><ellipse cx="642" cy="66.2969" fill="none" rx="3" ry="3" style="stroke:#038048;stroke-width:1.0;"/><text fill="#000000" font-family="sans-serif" font-size="14" lengthAdjust="spacing" textLength="128" x="651" y="72.292">Arguments : string</text><line style="stroke:#181818;stroke-width:0.5;" x1="632" x2="784" y1="79.5938" y2="79.5938"/></g><!--MD5=[6f5ea7d22600d893f3952de44e9fffd7]
class RXptrWrapperGenerator--><g id="elem_RXptrWrapperGenerator"><rect codeLine="12" fill="#F1F1F1" height="48" id="RXptrWrapperGenerator" rx="2.5" ry="2.5" style="stroke:#181818;stroke-width:0.5;" width="200" x="7" y="526.5"/><ellipse cx="22" cy="542.5" fill="#ADD1B2" rx="11" ry="11" style="stroke:#181818;stroke-width:1.0;"/><path d="M24.9688,548.1406 Q24.3906,548.4375 23.75,548.5781 Q23.1094,548.7344 22.4063,548.7344 Q19.9063,548.7344 18.5781,547.0938 Q17.2656,545.4375 17.2656,542.3125 Q17.2656,539.1875 18.5781,537.5313 Q19.9063,535.875 22.4063,535.875 Q23.1094,535.875 23.75,536.0313 Q24.4063,536.1875 24.9688,536.4844 L24.9688,539.2031 Q24.3438,538.625 23.75,538.3594 Q23.1563,538.0781 22.5313,538.0781 Q21.1875,538.0781 20.5,539.1563 Q19.8125,540.2188 19.8125,542.3125 Q19.8125,544.4063 20.5,545.4844 Q21.1875,546.5469 22.5313,546.5469 Q23.1563,546.5469 23.75,546.2813 Q24.3438,546 24.9688,545.4219 L24.9688,548.1406 Z " fill="#000000"/><text fill="#000000" font-family="sans-serif" font-size="14" lengthAdjust="spacing" textLength="168" x="36" y="547.3467">RXptrWrapperGenerator</text><line style="stroke:#181818;stroke-width:0.5;" x1="8" x2="206" y1="558.5" y2="558.5"/><line style="stroke:#181818;stroke-width:0.5;" x1="8" x2="206" y1="566.5" y2="566.5"/></g><!--MD5=[a9141fe02a75501802ce3a4e5bfd561d]
class TransientArgumentConversion--><g id="elem_TransientArgumentConversion"><rect codeLine="14" fill="#F1F1F1" height="129.4844" id="TransientArgumentConversion" rx="2.5" ry="2.5" style="stroke:#181818;stroke-width:0.5;" width="243" x="415.5" y="148"/><ellipse cx="430.5" cy="164" fill="#ADD1B2" rx="11" ry="11" style="stroke:#181818;stroke-width:1.0;"/><path d="M433.4688,169.6406 Q432.8906,169.9375 432.25,170.0781 Q431.6094,170.2344 430.9063,170.2344 Q428.4063,170.2344 427.0781,168.5938 Q425.7656,166.9375 425.7656,163.8125 Q425.7656,160.6875 427.0781,159.0313 Q428.4063,157.375 430.9063,157.375 Q431.6094,157.375 432.25,157.5313 Q432.9063,157.6875 433.4688,157.9844 L433.4688,160.7031 Q432.8438,160.125 432.25,159.8594 Q431.6563,159.5781 431.0313,159.5781 Q429.6875,159.5781 429,160.6563 Q428.3125,161.7188 428.3125,163.8125 Q428.3125,165.9063 429,166.9844 Q429.6875,168.0469 431.0313,168.0469 Q431.6563,168.0469 432.25,167.7813 Q432.8438,167.5 433.4688,166.9219 L433.4688,169.6406 Z " fill="#000000"/><text fill="#000000" font-family="sans-serif" font-size="14" lengthAdjust="spacing" textLength="211" x="444.5" y="168.8467">TransientArgumentConversion</text><line style="stroke:#181818;stroke-width:0.5;" x1="416.5" x2="657.5" y1="180" y2="180"/><ellipse cx="426.5" cy="191" fill="none" rx="3" ry="3" style="stroke:#038048;stroke-width:1.0;"/><text fill="#000000" font-family="sans-serif" font-size="14" lengthAdjust="spacing" textLength="148" x="435.5" y="196.9951">LocalVarname : string</text><ellipse cx="426.5" cy="207.2969" fill="none" rx="3" ry="3" style="stroke:#038048;stroke-width:1.0;"/><text fill="#000000" font-family="sans-serif" font-size="14" lengthAdjust="spacing" textLength="134" x="435.5" y="213.292">ApiVarname : string</text><ellipse cx="426.5" cy="223.5938" fill="none" rx="3" ry="3" style="stroke:#038048;stroke-width:1.0;"/><text fill="#000000" font-family="sans-serif" font-size="14" lengthAdjust="spacing" textLength="150" x="435.5" y="229.5889">LocalVarSetup : string</text><ellipse cx="426.5" cy="239.8906" fill="none" rx="3" ry="3" style="stroke:#038048;stroke-width:1.0;"/><text fill="#000000" font-family="sans-serif" font-size="14" lengthAdjust="spacing" textLength="166" x="435.5" y="245.8857">LocalVarCleanup : string</text><ellipse cx="426.5" cy="256.1875" fill="none" rx="3" ry="3" style="stroke:#038048;stroke-width:1.0;"/><text fill="#000000" font-family="sans-serif" font-size="14" lengthAdjust="spacing" textLength="103" x="435.5" y="262.1826">IsPointer : bool</text><line style="stroke:#181818;stroke-width:0.5;" x1="416.5" x2="657.5" y1="269.4844" y2="269.4844"/></g><!--MD5=[c1d3e2b001f8aa0bcc04dc8a3024dda6]
class BaseValueConversion--><g id="elem_BaseValueConversion"><rect codeLine="21" fill="#F1F1F1" height="48" id="BaseValueConversion" rx="2.5" ry="2.5" style="stroke:#181818;stroke-width:0.5;" width="187" x="1488.5" y="23.5"/><ellipse cx="1503.5" cy="39.5" fill="#A9DCDF" rx="11" ry="11" style="stroke:#181818;stroke-width:1.0;"/><path d="M1503.6094,34.8438 L1502.4531,39.9219 L1504.7813,39.9219 L1503.6094,34.8438 Z M1502.125,32.6094 L1505.1094,32.6094 L1508.4688,45 L1506.0156,45 L1505.25,41.9375 L1501.9688,41.9375 L1501.2188,45 L1498.7813,45 L1502.125,32.6094 Z " fill="#000000"/><text fill="#000000" font-family="sans-serif" font-size="14" font-style="italic" lengthAdjust="spacing" textLength="155" x="1517.5" y="44.3467">BaseValueConversion</text><line style="stroke:#181818;stroke-width:0.5;" x1="1489.5" x2="1674.5" y1="55.5" y2="55.5"/><line style="stroke:#181818;stroke-width:0.5;" x1="1489.5" x2="1674.5" y1="63.5" y2="63.5"/></g><!--MD5=[32d6b03462750b76b0bcaadda3bb34f2]
class ReturnedValueConversion--><g id="elem_ReturnedValueConversion"><rect codeLine="23" fill="#F1F1F1" height="48" id="ReturnedValueConversion" rx="2.5" ry="2.5" style="stroke:#181818;stroke-width:0.5;" width="213" x="1371.5" y="188.5"/><ellipse cx="1386.5" cy="204.5" fill="#ADD1B2" rx="11" ry="11" style="stroke:#181818;stroke-width:1.0;"/><path d="M1389.4688,210.1406 Q1388.8906,210.4375 1388.25,210.5781 Q1387.6094,210.7344 1386.9063,210.7344 Q1384.4063,210.7344 1383.0781,209.0938 Q1381.7656,207.4375 1381.7656,204.3125 Q1381.7656,201.1875 1383.0781,199.5313 Q1384.4063,197.875 1386.9063,197.875 Q1387.6094,197.875 1388.25,198.0313 Q1388.9063,198.1875 1389.4688,198.4844 L1389.4688,201.2031 Q1388.8438,200.625 1388.25,200.3594 Q1387.6563,200.0781 1387.0313,200.0781 Q1385.6875,200.0781 1385,201.1563 Q1384.3125,202.2188 1384.3125,204.3125 Q1384.3125,206.4063 1385,207.4844 Q1385.6875,208.5469 1387.0313,208.5469 Q1387.6563,208.5469 1388.25,208.2813 Q1388.8438,208 1389.4688,207.4219 L1389.4688,210.1406 Z " fill="#000000"/><text fill="#000000" font-family="sans-serif" font-size="14" lengthAdjust="spacing" textLength="181" x="1400.5" y="209.3467">ReturnedValueConversion</text><line style="stroke:#181818;stroke-width:0.5;" x1="1372.5" x2="1583.5" y1="220.5" y2="220.5"/><line style="stroke:#181818;stroke-width:0.5;" x1="1372.5" x2="1583.5" y1="228.5" y2="228.5"/></g><!--MD5=[4ef9fbe51bed9a31b4788a11f6f466f3]
class ArgConversion--><g id="elem_ArgConversion"><rect codeLine="25" fill="#F1F1F1" height="48" id="ArgConversion" rx="2.5" ry="2.5" style="stroke:#181818;stroke-width:0.5;" width="133" x="1619.5" y="188.5"/><ellipse cx="1634.5" cy="204.5" fill="#ADD1B2" rx="11" ry="11" style="stroke:#181818;stroke-width:1.0;"/><path d="M1637.4688,210.1406 Q1636.8906,210.4375 1636.25,210.5781 Q1635.6094,210.7344 1634.9063,210.7344 Q1632.4063,210.7344 1631.0781,209.0938 Q1629.7656,207.4375 1629.7656,204.3125 Q1629.7656,201.1875 1631.0781,199.5313 Q1632.4063,197.875 1634.9063,197.875 Q1635.6094,197.875 1636.25,198.0313 Q1636.9063,198.1875 1637.4688,198.4844 L1637.4688,201.2031 Q1636.8438,200.625 1636.25,200.3594 Q1635.6563,200.0781 1635.0313,200.0781 Q1633.6875,200.0781 1633,201.1563 Q1632.3125,202.2188 1632.3125,204.3125 Q1632.3125,206.4063 1633,207.4844 Q1633.6875,208.5469 1635.0313,208.5469 Q1635.6563,208.5469 1636.25,208.2813 Q1636.8438,208 1637.4688,207.4219 L1637.4688,210.1406 Z " fill="#000000"/><text fill="#000000" font-family="sans-serif" font-size="14" lengthAdjust="spacing" textLength="101" x="1648.5" y="209.3467">ArgConversion</text><line style="stroke:#181818;stroke-width:0.5;" x1="1620.5" x2="1751.5" y1="220.5" y2="220.5"/><line style="stroke:#181818;stroke-width:0.5;" x1="1620.5" x2="1751.5" y1="228.5" y2="228.5"/></g><!--MD5=[3b8a5409da5b6d6e64751a3c27aa1368]
class MatlabApiWrapperGenerator--><g id="elem_MatlabApiWrapperGenerator"><rect codeLine="27" fill="#F1F1F1" height="48" id="MatlabApiWrapperGenerator" rx="2.5" ry="2.5" style="stroke:#181818;stroke-width:0.5;" width="226" x="242" y="526.5"/><ellipse cx="257" cy="542.5" fill="#ADD1B2" rx="11" ry="11" style="stroke:#181818;stroke-width:1.0;"/><path d="M259.9688,548.1406 Q259.3906,548.4375 258.75,548.5781 Q258.1094,548.7344 257.4063,548.7344 Q254.9063,548.7344 253.5781,547.0938 Q252.2656,545.4375 252.2656,542.3125 Q252.2656,539.1875 253.5781,537.5313 Q254.9063,535.875 257.4063,535.875 Q258.1094,535.875 258.75,536.0313 Q259.4063,536.1875 259.9688,536.4844 L259.9688,539.2031 Q259.3438,538.625 258.75,538.3594 Q258.1563,538.0781 257.5313,538.0781 Q256.1875,538.0781 255.5,539.1563 Q254.8125,540.2188 254.8125,542.3125 Q254.8125,544.4063 255.5,545.4844 Q256.1875,546.5469 257.5313,546.5469 Q258.1563,546.5469 258.75,546.2813 Q259.3438,546 259.9688,545.4219 L259.9688,548.1406 Z " fill="#000000"/><text fill="#000000" font-family="sans-serif" font-size="14" lengthAdjust="spacing" textLength="194" x="271" y="547.3467">MatlabApiWrapperGenerator</text><line style="stroke:#181818;stroke-width:0.5;" x1="243" x2="467" y1="558.5" y2="558.5"/><line style="stroke:#181818;stroke-width:0.5;" x1="243" x2="467" y1="566.5" y2="566.5"/></g><!--MD5=[4c8ff3a3bab92ade3f00a898f09d4c6c]
class BaseCsharpApiWrapperGenerator--><g id="elem_BaseCsharpApiWrapperGenerator"><rect codeLine="29" fill="#F1F1F1" height="48" id="BaseCsharpApiWrapperGenerator" rx="2.5" ry="2.5" style="stroke:#181818;stroke-width:0.5;" width="270" x="503" y="526.5"/><ellipse cx="518" cy="542.5" fill="#A9DCDF" rx="11" ry="11" style="stroke:#181818;stroke-width:1.0;"/><path d="M518.1094,537.8438 L516.9531,542.9219 L519.2813,542.9219 L518.1094,537.8438 Z M516.625,535.6094 L519.6094,535.6094 L522.9688,548 L520.5156,548 L519.75,544.9375 L516.4688,544.9375 L515.7188,548 L513.2813,548 L516.625,535.6094 Z " fill="#000000"/><text fill="#000000" font-family="sans-serif" font-size="14" font-style="italic" lengthAdjust="spacing" textLength="238" x="532" y="547.3467">BaseCsharpApiWrapperGenerator</text><line style="stroke:#181818;stroke-width:0.5;" x1="504" x2="772" y1="558.5" y2="558.5"/><line style="stroke:#181818;stroke-width:0.5;" x1="504" x2="772" y1="566.5" y2="566.5"/></g><!--MD5=[43c3a4c63334f7a27a862d0411d8c732]
class CsharpApiWrapperGenerator--><g id="elem_CsharpApiWrapperGenerator"><rect codeLine="31" fill="#F1F1F1" height="48" id="CsharpApiWrapperGenerator" rx="2.5" ry="2.5" style="stroke:#181818;stroke-width:0.5;" width="230" x="372" y="667.5"/><ellipse cx="387" cy="683.5" fill="#ADD1B2" rx="11" ry="11" style="stroke:#181818;stroke-width:1.0;"/><path d="M389.9688,689.1406 Q389.3906,689.4375 388.75,689.5781 Q388.1094,689.7344 387.4063,689.7344 Q384.9063,689.7344 383.5781,688.0938 Q382.2656,686.4375 382.2656,683.3125 Q382.2656,680.1875 383.5781,678.5313 Q384.9063,676.875 387.4063,676.875 Q388.1094,676.875 388.75,677.0313 Q389.4063,677.1875 389.9688,677.4844 L389.9688,680.2031 Q389.3438,679.625 388.75,679.3594 Q388.1563,679.0781 387.5313,679.0781 Q386.1875,679.0781 385.5,680.1563 Q384.8125,681.2188 384.8125,683.3125 Q384.8125,685.4063 385.5,686.4844 Q386.1875,687.5469 387.5313,687.5469 Q388.1563,687.5469 388.75,687.2813 Q389.3438,687 389.9688,686.4219 L389.9688,689.1406 Z " fill="#000000"/><text fill="#000000" font-family="sans-serif" font-size="14" lengthAdjust="spacing" textLength="198" x="401" y="688.3467">CsharpApiWrapperGenerator</text><line style="stroke:#181818;stroke-width:0.5;" x1="373" x2="601" y1="699.5" y2="699.5"/><line style="stroke:#181818;stroke-width:0.5;" x1="373" x2="601" y1="707.5" y2="707.5"/></g><!--MD5=[766f7f277a167c9344e6436a1cd92d10]
class CsharpDelegatesApiWrapperGenerator--><g id="elem_CsharpDelegatesApiWrapperGenerator"><rect codeLine="33" fill="#F1F1F1" height="48" id="CsharpDelegatesApiWrapperGenerator" rx="2.5" ry="2.5" style="stroke:#181818;stroke-width:0.5;" width="301" x="637.5" y="667.5"/><ellipse cx="652.5" cy="683.5" fill="#ADD1B2" rx="11" ry="11" style="stroke:#181818;stroke-width:1.0;"/><path d="M655.4688,689.1406 Q654.8906,689.4375 654.25,689.5781 Q653.6094,689.7344 652.9063,689.7344 Q650.4063,689.7344 649.0781,688.0938 Q647.7656,686.4375 647.7656,683.3125 Q647.7656,680.1875 649.0781,678.5313 Q650.4063,676.875 652.9063,676.875 Q653.6094,676.875 654.25,677.0313 Q654.9063,677.1875 655.4688,677.4844 L655.4688,680.2031 Q654.8438,679.625 654.25,679.3594 Q653.6563,679.0781 653.0313,679.0781 Q651.6875,679.0781 651,680.1563 Q650.3125,681.2188 650.3125,683.3125 Q650.3125,685.4063 651,686.4844 Q651.6875,687.5469 653.0313,687.5469 Q653.6563,687.5469 654.25,687.2813 Q654.8438,687 655.4688,686.4219 L655.4688,689.1406 Z " fill="#000000"/><text fill="#000000" font-family="sans-serif" font-size="14" lengthAdjust="spacing" textLength="269" x="666.5" y="688.3467">CsharpDelegatesApiWrapperGenerator</text><line style="stroke:#181818;stroke-width:0.5;" x1="638.5" x2="937.5" y1="699.5" y2="699.5"/><line style="stroke:#181818;stroke-width:0.5;" x1="638.5" x2="937.5" y1="707.5" y2="707.5"/></g><!--MD5=[72a019251cc42ddee78286bfba26e7ac]
class BaseApiConverter--><g id="elem_BaseApiConverter"><rect codeLine="36" fill="#F1F1F1" height="113.1875" id="BaseApiConverter" rx="2.5" ry="2.5" style="stroke:#181818;stroke-width:0.5;" width="518" x="663" y="337"/><ellipse cx="854.25" cy="353" fill="#A9DCDF" rx="11" ry="11" style="stroke:#181818;stroke-width:1.0;"/><path d="M854.3594,348.3438 L853.2031,353.4219 L855.5313,353.4219 L854.3594,348.3438 Z M852.875,346.1094 L855.8594,346.1094 L859.2188,358.5 L856.7656,358.5 L856,355.4375 L852.7188,355.4375 L851.9688,358.5 L849.5313,358.5 L852.875,346.1094 Z " fill="#000000"/><text fill="#000000" font-family="sans-serif" font-size="14" font-style="italic" lengthAdjust="spacing" textLength="127" x="874.75" y="357.8467">BaseApiConverter</text><line style="stroke:#181818;stroke-width:0.5;" x1="664" x2="1180" y1="369" y2="369"/><ellipse cx="674" cy="380" fill="none" rx="3" ry="3" style="stroke:#038048;stroke-width:1.0;"/><text fill="#000000" font-family="sans-serif" font-size="14" lengthAdjust="spacing" textLength="343" x="683" y="385.9951">TypeMap : Dictionary&lt;string, string&gt; «get» «set»</text><line style="stroke:#181818;stroke-width:0.5;" x1="664" x2="1180" y1="393.2969" y2="393.2969"/><ellipse cx="674" cy="404.2969" fill="#84BE84" rx="3" ry="3" style="stroke:#038048;stroke-width:1.0;"/><text fill="#000000" font-family="sans-serif" font-size="14" lengthAdjust="spacing" textLength="212" x="683" y="410.292">ConvertLine(line:string) : string</text><ellipse cx="674" cy="420.5938" fill="#84BE84" rx="3" ry="3" style="stroke:#038048;stroke-width:1.0;"/><text fill="#000000" font-family="sans-serif" font-size="14" lengthAdjust="spacing" textLength="233" x="683" y="426.5889">ConvertApiLine(line:string) : string</text><ellipse cx="674" cy="436.8906" fill="#84BE84" rx="3" ry="3" style="stroke:#038048;stroke-width:1.0;"/><text fill="#000000" font-family="sans-serif" font-size="14" font-style="italic" lengthAdjust="spacing" textLength="492" x="683" y="442.8857">ConvertApiLineSpecific(line:string, funcAndArgs:FuncAndArgs) : string</text></g><!--MD5=[0a9c154894905f63eec46cad02b97c19]
class RcppGlueWrapperGenerator--><g id="elem_RcppGlueWrapperGenerator"><rect codeLine="42" fill="#F1F1F1" height="48" id="RcppGlueWrapperGenerator" rx="2.5" ry="2.5" style="stroke:#181818;stroke-width:0.5;" width="228" x="808" y="526.5"/><ellipse cx="823" cy="542.5" fill="#ADD1B2" rx="11" ry="11" style="stroke:#181818;stroke-width:1.0;"/><path d="M825.9688,548.1406 Q825.3906,548.4375 824.75,548.5781 Q824.1094,548.7344 823.4063,548.7344 Q820.9063,548.7344 819.5781,547.0938 Q818.2656,545.4375 818.2656,542.3125 Q818.2656,539.1875 819.5781,537.5313 Q820.9063,535.875 823.4063,535.875 Q824.1094,535.875 824.75,536.0313 Q825.4063,536.1875 825.9688,536.4844 L825.9688,539.2031 Q825.3438,538.625 824.75,538.3594 Q824.1563,538.0781 823.5313,538.0781 Q822.1875,538.0781 821.5,539.1563 Q820.8125,540.2188 820.8125,542.3125 Q820.8125,544.4063 821.5,545.4844 Q822.1875,546.5469 823.5313,546.5469 Q824.1563,546.5469 824.75,546.2813 Q825.3438,546 825.9688,545.4219 L825.9688,548.1406 Z " fill="#000000"/><text fill="#000000" font-family="sans-serif" font-size="14" lengthAdjust="spacing" textLength="196" x="837" y="547.3467">RcppGlueWrapperGenerator</text><line style="stroke:#181818;stroke-width:0.5;" x1="809" x2="1035" y1="558.5" y2="558.5"/><line style="stroke:#181818;stroke-width:0.5;" x1="809" x2="1035" y1="566.5" y2="566.5"/></g><!--MD5=[7c43fa49d8a715ef0b44e438b0259bf7]
class ICustomFunctionWrapper--><g id="elem_ICustomFunctionWrapper"><rect codeLine="44" fill="#F1F1F1" height="80.5938" id="ICustomFunctionWrapper" rx="2.5" ry="2.5" style="stroke:#181818;stroke-width:0.5;" width="425" x="1071.5" y="510"/><ellipse cx="1190.25" cy="526" fill="#B4A7E5" rx="11" ry="11" style="stroke:#181818;stroke-width:1.0;"/><path d="M1186.1719,521.7656 L1186.1719,519.6094 L1193.5625,519.6094 L1193.5625,521.7656 L1191.0938,521.7656 L1191.0938,529.8438 L1193.5625,529.8438 L1193.5625,532 L1186.1719,532 L1186.1719,529.8438 L1188.6406,529.8438 L1188.6406,521.7656 L1186.1719,521.7656 Z " fill="#000000"/><text fill="#000000" font-family="sans-serif" font-size="14" font-style="italic" lengthAdjust="spacing" textLength="179" x="1210.75" y="530.8467">ICustomFunctionWrapper</text><line style="stroke:#181818;stroke-width:0.5;" x1="1072.5" x2="1495.5" y1="542" y2="542"/><line style="stroke:#181818;stroke-width:0.5;" x1="1072.5" x2="1495.5" y1="550" y2="550"/><text fill="#000000" font-family="sans-serif" font-size="14" lengthAdjust="spacing" textLength="413" x="1077.5" y="566.9951">CreateWrapper(funcDef:string, declarationOnly:bool) : string</text><text fill="#000000" font-family="sans-serif" font-size="14" lengthAdjust="spacing" textLength="204" x="1077.5" y="583.292">IsMatch(funcDef:string) : bool</text></g><!--MD5=[9778184a35efc0dec916809179ed9908]
class CustomFunctionWrapperImpl--><g id="elem_CustomFunctionWrapperImpl"><rect codeLine="48" fill="#F1F1F1" height="80.5938" id="CustomFunctionWrapperImpl" rx="2.5" ry="2.5" style="stroke:#181818;stroke-width:0.5;" width="236" x="1166" y="651"/><ellipse cx="1182.8" cy="667" fill="#ADD1B2" rx="11" ry="11" style="stroke:#181818;stroke-width:1.0;"/><path d="M1185.7688,672.6406 Q1185.1906,672.9375 1184.55,673.0781 Q1183.9094,673.2344 1183.2063,673.2344 Q1180.7063,673.2344 1179.3781,671.5938 Q1178.0656,669.9375 1178.0656,666.8125 Q1178.0656,663.6875 1179.3781,662.0313 Q1180.7063,660.375 1183.2063,660.375 Q1183.9094,660.375 1184.55,660.5313 Q1185.2063,660.6875 1185.7688,660.9844 L1185.7688,663.7031 Q1185.1438,663.125 1184.55,662.8594 Q1183.9563,662.5781 1183.3313,662.5781 Q1181.9875,662.5781 1181.3,663.6563 Q1180.6125,664.7188 1180.6125,666.8125 Q1180.6125,668.9063 1181.3,669.9844 Q1181.9875,671.0469 1183.3313,671.0469 Q1183.9563,671.0469 1184.55,670.7813 Q1185.1438,670.5 1185.7688,669.9219 L1185.7688,672.6406 Z " fill="#000000"/><text fill="#000000" font-family="sans-serif" font-size="14" lengthAdjust="spacing" textLength="200" x="1197.2" y="671.8467">CustomFunctionWrapperImpl</text><line style="stroke:#181818;stroke-width:0.5;" x1="1167" x2="1401" y1="683" y2="683"/><ellipse cx="1177" cy="694" fill="none" rx="3" ry="3" style="stroke:#038048;stroke-width:1.0;"/><text fill="#000000" font-family="sans-serif" font-size="14" lengthAdjust="spacing" textLength="117" x="1186" y="699.9951">Template : string</text><line style="stroke:#181818;stroke-width:0.5;" x1="1167" x2="1401" y1="707.2969" y2="707.2969"/><ellipse cx="1177" cy="718.2969" fill="#84BE84" rx="3" ry="3" style="stroke:#038048;stroke-width:1.0;"/><text fill="#000000" font-family="sans-serif" font-size="14" lengthAdjust="spacing" textLength="210" x="1186" y="724.292">CustomFunctionWrapperImpl()</text></g><!--MD5=[08a9bdea67e75b6e0dad65d17d77794f]
class TypeAndName--><g id="elem_TypeAndName"><rect codeLine="52" fill="#F1F1F1" height="80.5938" id="TypeAndName" rx="2.5" ry="2.5" style="stroke:#181818;stroke-width:0.5;" width="152" x="694" y="172"/><ellipse cx="717.55" cy="188" fill="#ADD1B2" rx="11" ry="11" style="stroke:#181818;stroke-width:1.0;"/><path d="M720.5188,193.6406 Q719.9406,193.9375 719.3,194.0781 Q718.6594,194.2344 717.9563,194.2344 Q715.4563,194.2344 714.1281,192.5938 Q712.8156,190.9375 712.8156,187.8125 Q712.8156,184.6875 714.1281,183.0313 Q715.4563,181.375 717.9563,181.375 Q718.6594,181.375 719.3,181.5313 Q719.9563,181.6875 720.5188,181.9844 L720.5188,184.7031 Q719.8938,184.125 719.3,183.8594 Q718.7063,183.5781 718.0813,183.5781 Q716.7375,183.5781 716.05,184.6563 Q715.3625,185.7188 715.3625,187.8125 Q715.3625,189.9063 716.05,190.9844 Q716.7375,192.0469 718.0813,192.0469 Q718.7063,192.0469 719.3,191.7813 Q719.8938,191.5 720.5188,190.9219 L720.5188,193.6406 Z " fill="#000000"/><text fill="#000000" font-family="sans-serif" font-size="14" lengthAdjust="spacing" textLength="101" x="733.45" y="192.8467">TypeAndName</text><line style="stroke:#181818;stroke-width:0.5;" x1="695" x2="845" y1="204" y2="204"/><ellipse cx="705" cy="215" fill="none" rx="3" ry="3" style="stroke:#038048;stroke-width:1.0;"/><text fill="#000000" font-family="sans-serif" font-size="14" lengthAdjust="spacing" textLength="126" x="714" y="220.9951">TypeName : string</text><ellipse cx="705" cy="231.2969" fill="none" rx="3" ry="3" style="stroke:#038048;stroke-width:1.0;"/><text fill="#000000" font-family="sans-serif" font-size="14" lengthAdjust="spacing" textLength="114" x="714" y="237.292">VarName : string</text><line style="stroke:#181818;stroke-width:0.5;" x1="695" x2="845" y1="244.5938" y2="244.5938"/></g><!--MD5=[2be87c0f301aab8339a9ac05e003b2ca]
class CppApiWrapperGenerator--><g id="elem_CppApiWrapperGenerator"><rect codeLine="56" fill="#F1F1F1" height="48" id="CppApiWrapperGenerator" rx="2.5" ry="2.5" style="stroke:#181818;stroke-width:0.5;" width="209" x="1531.5" y="526.5"/><ellipse cx="1546.5" cy="542.5" fill="#ADD1B2" rx="11" ry="11" style="stroke:#181818;stroke-width:1.0;"/><path d="M1549.4688,548.1406 Q1548.8906,548.4375 1548.25,548.5781 Q1547.6094,548.7344 1546.9063,548.7344 Q1544.4063,548.7344 1543.0781,547.0938 Q1541.7656,545.4375 1541.7656,542.3125 Q1541.7656,539.1875 1543.0781,537.5313 Q1544.4063,535.875 1546.9063,535.875 Q1547.6094,535.875 1548.25,536.0313 Q1548.9063,536.1875 1549.4688,536.4844 L1549.4688,539.2031 Q1548.8438,538.625 1548.25,538.3594 Q1547.6563,538.0781 1547.0313,538.0781 Q1545.6875,538.0781 1545,539.1563 Q1544.3125,540.2188 1544.3125,542.3125 Q1544.3125,544.4063 1545,545.4844 Q1545.6875,546.5469 1547.0313,546.5469 Q1547.6563,546.5469 1548.25,546.2813 Q1548.8438,546 1549.4688,545.4219 L1549.4688,548.1406 Z " fill="#000000"/><text fill="#000000" font-family="sans-serif" font-size="14" lengthAdjust="spacing" textLength="177" x="1560.5" y="547.3467">CppApiWrapperGenerator</text><line style="stroke:#181818;stroke-width:0.5;" x1="1532.5" x2="1739.5" y1="558.5" y2="558.5"/><line style="stroke:#181818;stroke-width:0.5;" x1="1532.5" x2="1739.5" y1="566.5" y2="566.5"/></g><!--MD5=[cbcbe98bf92bedbe457f5ef88fa14144]
class PythonCffiWrapperGenerator--><g id="elem_PythonCffiWrapperGenerator"><rect codeLine="58" fill="#F1F1F1" height="48" id="PythonCffiWrapperGenerator" rx="2.5" ry="2.5" style="stroke:#181818;stroke-width:0.5;" width="229" x="1775.5" y="526.5"/><ellipse cx="1790.5" cy="542.5" fill="#ADD1B2" rx="11" ry="11" style="stroke:#181818;stroke-width:1.0;"/><path d="M1793.4688,548.1406 Q1792.8906,548.4375 1792.25,548.5781 Q1791.6094,548.7344 1790.9063,548.7344 Q1788.4063,548.7344 1787.0781,547.0938 Q1785.7656,545.4375 1785.7656,542.3125 Q1785.7656,539.1875 1787.0781,537.5313 Q1788.4063,535.875 1790.9063,535.875 Q1791.6094,535.875 1792.25,536.0313 Q1792.9063,536.1875 1793.4688,536.4844 L1793.4688,539.2031 Q1792.8438,538.625 1792.25,538.3594 Q1791.6563,538.0781 1791.0313,538.0781 Q1789.6875,538.0781 1789,539.1563 Q1788.3125,540.2188 1788.3125,542.3125 Q1788.3125,544.4063 1789,545.4844 Q1789.6875,546.5469 1791.0313,546.5469 Q1791.6563,546.5469 1792.25,546.2813 Q1792.8438,546 1793.4688,545.4219 L1793.4688,548.1406 Z " fill="#000000"/><text fill="#000000" font-family="sans-serif" font-size="14" lengthAdjust="spacing" textLength="197" x="1804.5" y="547.3467">PythonCffiWrapperGenerator</text><line style="stroke:#181818;stroke-width:0.5;" x1="1776.5" x2="2003.5" y1="558.5" y2="558.5"/><line style="stroke:#181818;stroke-width:0.5;" x1="1776.5" x2="2003.5" y1="566.5" y2="566.5"/></g><!--MD5=[b8025625245d6a0e9c06fd1b467737d6]
class CodeFileFilter--><g id="elem_CodeFileFilter"><rect codeLine="60" fill="#F1F1F1" height="48" id="CodeFileFilter" rx="2.5" ry="2.5" style="stroke:#181818;stroke-width:0.5;" width="125" x="1211.5" y="188.5"/><ellipse cx="1226.5" cy="204.5" fill="#ADD1B2" rx="11" ry="11" style="stroke:#181818;stroke-width:1.0;"/><path d="M1229.4688,210.1406 Q1228.8906,210.4375 1228.25,210.5781 Q1227.6094,210.7344 1226.9063,210.7344 Q1224.4063,210.7344 1223.0781,209.0938 Q1221.7656,207.4375 1221.7656,204.3125 Q1221.7656,201.1875 1223.0781,199.5313 Q1224.4063,197.875 1226.9063,197.875 Q1227.6094,197.875 1228.25,198.0313 Q1228.9063,198.1875 1229.4688,198.4844 L1229.4688,201.2031 Q1228.8438,200.625 1228.25,200.3594 Q1227.6563,200.0781 1227.0313,200.0781 Q1225.6875,200.0781 1225,201.1563 Q1224.3125,202.2188 1224.3125,204.3125 Q1224.3125,206.4063 1225,207.4844 Q1225.6875,208.5469 1227.0313,208.5469 Q1227.6563,208.5469 1228.25,208.2813 Q1228.8438,208 1229.4688,207.4219 L1229.4688,210.1406 Z " fill="#000000"/><text fill="#000000" font-family="sans-serif" font-size="14" lengthAdjust="spacing" textLength="93" x="1240.5" y="209.3467">CodeFileFilter</text><line style="stroke:#181818;stroke-width:0.5;" x1="1212.5" x2="1335.5" y1="220.5" y2="220.5"/><line style="stroke:#181818;stroke-width:0.5;" x1="1212.5" x2="1335.5" y1="228.5" y2="228.5"/></g><!--MD5=[72d81e0f26162f51915ff6b9dd864274]
class HeaderFilter--><g id="elem_HeaderFilter"><rect codeLine="62" fill="#F1F1F1" height="48" id="HeaderFilter" rx="2.5" ry="2.5" style="stroke:#181818;stroke-width:0.5;" width="115" x="1216.5" y="369.5"/><ellipse cx="1231.5" cy="385.5" fill="#ADD1B2" rx="11" ry="11" style="stroke:#181818;stroke-width:1.0;"/><path d="M1234.4688,391.1406 Q1233.8906,391.4375 1233.25,391.5781 Q1232.6094,391.7344 1231.9063,391.7344 Q1229.4063,391.7344 1228.0781,390.0938 Q1226.7656,388.4375 1226.7656,385.3125 Q1226.7656,382.1875 1228.0781,380.5313 Q1229.4063,378.875 1231.9063,378.875 Q1232.6094,378.875 1233.25,379.0313 Q1233.9063,379.1875 1234.4688,379.4844 L1234.4688,382.2031 Q1233.8438,381.625 1233.25,381.3594 Q1232.6563,381.0781 1232.0313,381.0781 Q1230.6875,381.0781 1230,382.1563 Q1229.3125,383.2188 1229.3125,385.3125 Q1229.3125,387.4063 1230,388.4844 Q1230.6875,389.5469 1232.0313,389.5469 Q1232.6563,389.5469 1233.25,389.2813 Q1233.8438,389 1234.4688,388.4219 L1234.4688,391.1406 Z " fill="#000000"/><text fill="#000000" font-family="sans-serif" font-size="14" lengthAdjust="spacing" textLength="83" x="1245.5" y="390.3467">HeaderFilter</text><line style="stroke:#181818;stroke-width:0.5;" x1="1217.5" x2="1330.5" y1="401.5" y2="401.5"/><line style="stroke:#181818;stroke-width:0.5;" x1="1217.5" x2="1330.5" y1="409.5" y2="409.5"/></g><!--MD5=[249bc8fddf24a1772a640c96ad75d8e4]
class RcppExportedCppFunctions--><g id="elem_RcppExportedCppFunctions"><rect codeLine="64" fill="#F1F1F1" height="48" id="RcppExportedCppFunctions" rx="2.5" ry="2.5" style="stroke:#181818;stroke-width:0.5;" width="226" x="1367" y="369.5"/><ellipse cx="1382" cy="385.5" fill="#ADD1B2" rx="11" ry="11" style="stroke:#181818;stroke-width:1.0;"/><path d="M1384.9688,391.1406 Q1384.3906,391.4375 1383.75,391.5781 Q1383.1094,391.7344 1382.4063,391.7344 Q1379.9063,391.7344 1378.5781,390.0938 Q1377.2656,388.4375 1377.2656,385.3125 Q1377.2656,382.1875 1378.5781,380.5313 Q1379.9063,378.875 1382.4063,378.875 Q1383.1094,378.875 1383.75,379.0313 Q1384.4063,379.1875 1384.9688,379.4844 L1384.9688,382.2031 Q1384.3438,381.625 1383.75,381.3594 Q1383.1563,381.0781 1382.5313,381.0781 Q1381.1875,381.0781 1380.5,382.1563 Q1379.8125,383.2188 1379.8125,385.3125 Q1379.8125,387.4063 1380.5,388.4844 Q1381.1875,389.5469 1382.5313,389.5469 Q1383.1563,389.5469 1383.75,389.2813 Q1384.3438,389 1384.9688,388.4219 L1384.9688,391.1406 Z " fill="#000000"/><text fill="#000000" font-family="sans-serif" font-size="14" lengthAdjust="spacing" textLength="194" x="1396" y="390.3467">RcppExportedCppFunctions</text><line style="stroke:#181818;stroke-width:0.5;" x1="1368" x2="1592" y1="401.5" y2="401.5"/><line style="stroke:#181818;stroke-width:0.5;" x1="1368" x2="1592" y1="409.5" y2="409.5"/></g><!--MD5=[ba3955bd2d683a8195e8c33d6c633f5c]
class WrapperGenerator--><g id="elem_WrapperGenerator"><rect codeLine="67" fill="#F1F1F1" height="80.5938" id="WrapperGenerator" rx="2.5" ry="2.5" style="stroke:#181818;stroke-width:0.5;" width="183" x="1069.5" y="7"/><ellipse cx="1094.85" cy="23" fill="#ADD1B2" rx="11" ry="11" style="stroke:#181818;stroke-width:1.0;"/><path d="M1097.8188,28.6406 Q1097.2406,28.9375 1096.6,29.0781 Q1095.9594,29.2344 1095.2563,29.2344 Q1092.7563,29.2344 1091.4281,27.5938 Q1090.1156,25.9375 1090.1156,22.8125 Q1090.1156,19.6875 1091.4281,18.0313 Q1092.7563,16.375 1095.2563,16.375 Q1095.9594,16.375 1096.6,16.5313 Q1097.2563,16.6875 1097.8188,16.9844 L1097.8188,19.7031 Q1097.1938,19.125 1096.6,18.8594 Q1096.0063,18.5781 1095.3813,18.5781 Q1094.0375,18.5781 1093.35,19.6563 Q1092.6625,20.7188 1092.6625,22.8125 Q1092.6625,24.9063 1093.35,25.9844 Q1094.0375,27.0469 1095.3813,27.0469 Q1096.0063,27.0469 1096.6,26.7813 Q1097.1938,26.5 1097.8188,25.9219 L1097.8188,28.6406 Z " fill="#000000"/><text fill="#000000" font-family="sans-serif" font-size="14" lengthAdjust="spacing" textLength="128" x="1111.15" y="27.8467">WrapperGenerator</text><line style="stroke:#181818;stroke-width:0.5;" x1="1070.5" x2="1251.5" y1="39" y2="39"/><text fill="#000000" font-family="sans-serif" font-size="14" lengthAdjust="spacing" textLength="171" x="1075.5" y="55.9951">converter : IApiConverter</text><text fill="#000000" font-family="sans-serif" font-size="14" lengthAdjust="spacing" textLength="135" x="1075.5" y="72.292">filter : CodeFileFilter</text><line style="stroke:#181818;stroke-width:0.5;" x1="1070.5" x2="1251.5" y1="79.5938" y2="79.5938"/></g><!--MD5=[9744e43278c9bd505b14d18151fa45a2]
reverse link BaseApiConverter to RXptrWrapperGenerator--><g id="link_BaseApiConverter_RXptrWrapperGenerator"><path codeLine="72" d="M642.65,430.17 C514.15,449.27 360.3,475.95 224,510 C205.9,514.52 186.6,520.53 168.99,526.5 " fill="none" id="BaseApiConverter-backto-RXptrWrapperGenerator" style="stroke:#181818;stroke-width:1.0;"/><polygon fill="none" points="641.83,423.22,662.64,427.23,643.87,437.07,641.83,423.22" style="stroke:#181818;stroke-width:1.0;"/></g><!--MD5=[d0cc05a3183954f50b2846c47c875da3]
reverse link BaseValueConversion to ReturnedValueConversion--><g id="link_BaseValueConversion_ReturnedValueConversion"><path codeLine="73" d="M1556.5,88.47 C1536.49,119.83 1509.34,162.39 1492.77,188.35 " fill="none" id="BaseValueConversion-backto-ReturnedValueConversion" style="stroke:#181818;stroke-width:1.0;"/><polygon fill="none" points="1550.66,84.6,1567.32,71.51,1562.46,92.13,1550.66,84.6" style="stroke:#181818;stroke-width:1.0;"/></g><!--MD5=[a8955fdb9374ca00ac0d5feb85ca3059]
reverse link BaseValueConversion to ArgConversion--><g id="link_BaseValueConversion_ArgConversion"><path codeLine="74" d="M1607.5,88.47 C1627.51,119.83 1654.66,162.39 1671.23,188.35 " fill="none" id="BaseValueConversion-backto-ArgConversion" style="stroke:#181818;stroke-width:1.0;"/><polygon fill="none" points="1601.54,92.13,1596.68,71.51,1613.34,84.6,1601.54,92.13" style="stroke:#181818;stroke-width:1.0;"/></g><!--MD5=[47ea59a61d54beb31e4921875e3259fb]
reverse link BaseApiConverter to MatlabApiWrapperGenerator--><g id="link_BaseApiConverter_MatlabApiWrapperGenerator"><path codeLine="75" d="M685.82,455.23 C620.63,472.46 549.96,491.55 485,510 C466.85,515.15 447.34,520.95 429.11,526.47 " fill="none" id="BaseApiConverter-backto-MatlabApiWrapperGenerator" style="stroke:#181818;stroke-width:1.0;"/><polygon fill="none" points="684.29,448.4,705.41,450.07,687.85,461.94,684.29,448.4" style="stroke:#181818;stroke-width:1.0;"/></g><!--MD5=[acd97695286f95ca9ecaf03a2e7edc1c]
reverse link IApiConverter to BaseApiConverter--><g id="link_IApiConverter_BaseApiConverter"><path codeLine="76" d="M966.54,280.22 C959.15,298.84 951.21,318.87 944.1,336.78 " fill="none" id="IApiConverter-backto-BaseApiConverter" style="stroke:#181818;stroke-width:1.0;"/><polygon fill="none" points="960.09,277.48,973.97,261.47,973.11,282.64,960.09,277.48" style="stroke:#181818;stroke-width:1.0;"/></g><!--MD5=[42ba43be884199e975a4fbf094dff9be]
reverse link BaseApiConverter to BaseCsharpApiWrapperGenerator--><g id="link_BaseApiConverter_BaseCsharpApiWrapperGenerator"><path codeLine="77" d="M802.5,459.72 C759,483.46 712.6,508.78 680.21,526.46 " fill="none" id="BaseApiConverter-backto-BaseCsharpApiWrapperGenerator" style="stroke:#181818;stroke-width:1.0;"/><polygon fill="none" points="799.36,453.46,820.27,450.02,806.07,465.75,799.36,453.46" style="stroke:#181818;stroke-width:1.0;"/></g><!--MD5=[6eff1338eea681393a9a4c32dc542879]
reverse link BaseCsharpApiWrapperGenerator to CsharpApiWrapperGenerator--><g id="link_BaseCsharpApiWrapperGenerator_CsharpApiWrapperGenerator"><path codeLine="78" d="M597.76,588.55 C570.53,613.61 535.42,645.93 512.1,667.39 " fill="none" id="BaseCsharpApiWrapperGenerator-backto-CsharpApiWrapperGenerator" style="stroke:#181818;stroke-width:1.0;"/><polygon fill="none" points="593.27,583.16,612.73,574.77,602.75,593.46,593.27,583.16" style="stroke:#181818;stroke-width:1.0;"/></g><!--MD5=[b66f45712b1fc0e27e9d4b5afc8c9db2]
reverse link BaseCsharpApiWrapperGenerator to CsharpDelegatesApiWrapperGenerator--><g id="link_BaseCsharpApiWrapperGenerator_CsharpDelegatesApiWrapperGenerator"><path codeLine="79" d="M677.93,588.5 C704.88,613.48 739.64,645.68 762.81,667.16 " fill="none" id="BaseCsharpApiWrapperGenerator-backto-CsharpDelegatesApiWrapperGenerator" style="stroke:#181818;stroke-width:1.0;"/><polygon fill="none" points="673.02,593.49,663.11,574.77,682.53,583.23,673.02,593.49" style="stroke:#181818;stroke-width:1.0;"/></g><!--MD5=[2eb34d411ca022f2d67a74266242b754]
reverse link BaseApiConverter to RcppGlueWrapperGenerator--><g id="link_BaseApiConverter_RcppGlueWrapperGenerator"><path codeLine="80" d="M922,470.17 C922,490.59 922,511.18 922,526.26 " fill="none" id="BaseApiConverter-backto-RcppGlueWrapperGenerator" style="stroke:#181818;stroke-width:1.0;"/><polygon fill="none" points="915,470.02,922,450.02,929,470.02,915,470.02" style="stroke:#181818;stroke-width:1.0;"/></g><!--MD5=[4fb1bf414efa2437d83195e19a6393f3]
reverse link ICustomFunctionWrapper to CustomFunctionWrapperImpl--><g id="link_ICustomFunctionWrapper_CustomFunctionWrapperImpl"><path codeLine="81" d="M1284,611.48 C1284,624.73 1284,638.45 1284,650.66 " fill="none" id="ICustomFunctionWrapper-backto-CustomFunctionWrapperImpl" style="stroke:#181818;stroke-width:1.0;"/><polygon fill="none" points="1277,611.33,1284,591.33,1291,611.33,1277,611.33" style="stroke:#181818;stroke-width:1.0;"/></g><!--MD5=[871bcd2e91b530735d56b03310e6fef3]
reverse link BaseApiConverter to CppApiWrapperGenerator--><g id="link_BaseApiConverter_CppApiWrapperGenerator"><path codeLine="82" d="M1200.8,450.29 C1342.24,477.17 1381.87,476.17 1514,510 C1532.33,514.69 1551.94,520.63 1569.96,526.46 " fill="none" id="BaseApiConverter-backto-CppApiWrapperGenerator" style="stroke:#181818;stroke-width:1.0;"/><polygon fill="none" points="1199.43,457.16,1181.12,446.5,1202.08,443.41,1199.43,457.16" style="stroke:#181818;stroke-width:1.0;"/></g><!--MD5=[f4c7a32020c6521f36888acd6c462f51]
reverse link BaseApiConverter to PythonCffiWrapperGenerator--><g id="link_BaseApiConverter_PythonCffiWrapperGenerator"><path codeLine="83" d="M1200.81,450.13 C1449.5,486.58 1519.27,461.89 1758,510 C1778.99,514.23 1801.43,520.33 1821.75,526.47 " fill="none" id="BaseApiConverter-backto-PythonCffiWrapperGenerator" style="stroke:#181818;stroke-width:1.0;"/><polygon fill="none" points="1199.74,457.05,1181.01,447.15,1201.82,443.2,1199.74,457.05" style="stroke:#181818;stroke-width:1.0;"/></g><!--MD5=[9a7e2783000adb2a68bf415808354fa3]
reverse link CodeFileFilter to HeaderFilter--><g id="link_CodeFileFilter_HeaderFilter"><path codeLine="84" d="M1274,256.55 C1274,291.96 1274,340.79 1274,369.27 " fill="none" id="CodeFileFilter-backto-HeaderFilter" style="stroke:#181818;stroke-width:1.0;"/><polygon fill="none" points="1267,256.53,1274,236.53,1281,256.53,1267,256.53" style="stroke:#181818;stroke-width:1.0;"/></g><!--MD5=[d315c245835648ac2141f0bb1bbdb253]
reverse link CodeFileFilter to RcppExportedCppFunctions--><g id="link_CodeFileFilter_RcppExportedCppFunctions"><path codeLine="85" d="M1315.68,249.72 C1356.77,285.42 1418.33,338.91 1453.27,369.27 " fill="none" id="CodeFileFilter-backto-RcppExportedCppFunctions" style="stroke:#181818;stroke-width:1.0;"/><polygon fill="none" points="1311.01,254.94,1300.51,236.53,1320.2,244.37,1311.01,254.94" style="stroke:#181818;stroke-width:1.0;"/></g><!--MD5=[9b483357790b03c6225463162df50455]
link WrapperGenerator to IApiConverter--><g id="link_WrapperGenerator_IApiConverter"><path codeLine="87" d="M1119.9,88.37 C1097.59,110.02 1069.75,137.03 1045.84,160.23 " fill="none" id="WrapperGenerator-to-IApiConverter" style="stroke:#181818;stroke-width:1.0;"/><polygon fill="#181818" points="1042.04,163.92,1051.2815,160.5148,1045.6252,160.4348,1045.7052,154.7785,1042.04,163.92" style="stroke:#181818;stroke-width:1.0;"/><text fill="#000000" font-family="sans-serif" font-size="13" lengthAdjust="spacing" textLength="61" x="983.7631" y="152.7679">converter</text></g><!--MD5=[f14d30cb746a8ad035f71b242853a2b2]
link WrapperGenerator to CodeFileFilter--><g id="link_WrapperGenerator_CodeFileFilter"><path codeLine="88" d="M1188.64,88.37 C1209.15,117.95 1236.59,157.53 1254.75,183.74 " fill="none" id="WrapperGenerator-to-CodeFileFilter" style="stroke:#181818;stroke-width:1.0;"/><polygon fill="#181818" points="1257.81,188.15,1255.9619,178.4761,1254.958,184.0432,1249.391,183.0393,1257.81,188.15" style="stroke:#181818;stroke-width:1.0;"/><text fill="#000000" font-family="sans-serif" font-size="13" lengthAdjust="spacing" textLength="28" x="1222.4512" y="177.4696">filter</text></g><!--MD5=[782e6ee4de6c3b8954b3746d693e4e0e]
link BaseApiConverter to ICustomFunctionWrapper--><g id="link_BaseApiConverter_ICustomFunctionWrapper"><path codeLine="89" d="M1051.67,450.02 C1096.21,469.09 1145.27,490.1 1186.78,507.87 " fill="none" id="BaseApiConverter-to-ICustomFunctionWrapper" style="stroke:#181818;stroke-width:1.0;"/><polygon fill="#181818" points="1191.55,509.91,1184.8615,502.6806,1186.9565,507.9352,1181.7019,510.0302,1191.55,509.91" style="stroke:#181818;stroke-width:1.0;"/><text fill="#000000" font-family="sans-serif" font-size="13" lengthAdjust="spacing" textLength="108" x="1059.2942" y="499.0566">customWrappers</text></g><!--MD5=[7fac4818c75bf987df3b637c4aca52e9]
@startuml
class StringHelper {
}
interface IApiConverter {
    ConvertLine(line:string) : string
    GetPreamble() : string
    GetPostamble() : string
}
class FuncAndArgs {
    + Function : string
    + Arguments : string
}
class RXptrWrapperGenerator {
}
class TransientArgumentConversion {
    + LocalVarname : string
    + ApiVarname : string
    + LocalVarSetup : string
    + LocalVarCleanup : string
    + IsPointer : bool
}
abstract class BaseValueConversion {
}
class ReturnedValueConversion {
}
class ArgConversion {
}
class MatlabApiWrapperGenerator {
}
abstract class BaseCsharpApiWrapperGenerator {
}
class CsharpApiWrapperGenerator {
}
class CsharpDelegatesApiWrapperGenerator {
}

abstract class BaseApiConverter {
    + TypeMap : Dictionary<string, string> <<get>> <<set>>
    + ConvertLine(line:string) : string
    + ConvertApiLine(line:string) : string
    + {abstract} ConvertApiLineSpecific(line:string, funcAndArgs:FuncAndArgs) : string
}
class RcppGlueWrapperGenerator {
}
interface ICustomFunctionWrapper {
    CreateWrapper(funcDef:string, declarationOnly:bool) : string
    IsMatch(funcDef:string) : bool
}
class CustomFunctionWrapperImpl {
    + CustomFunctionWrapperImpl()
    + Template : string
}
class TypeAndName {
    + TypeName : string
    + VarName : string
}
class CppApiWrapperGenerator {
}
class PythonCffiWrapperGenerator {
}
class CodeFileFilter {
}
class HeaderFilter {
}
class RcppExportedCppFunctions {
}

class WrapperGenerator {
    converter : IApiConverter
    filter : CodeFileFilter
}

BaseApiConverter <|- - RXptrWrapperGenerator
BaseValueConversion <|- - ReturnedValueConversion
BaseValueConversion <|- - ArgConversion
BaseApiConverter <|- - MatlabApiWrapperGenerator
IApiConverter <|- - BaseApiConverter
BaseApiConverter <|- - BaseCsharpApiWrapperGenerator
BaseCsharpApiWrapperGenerator <|- - CsharpApiWrapperGenerator
BaseCsharpApiWrapperGenerator <|- - CsharpDelegatesApiWrapperGenerator
BaseApiConverter <|- - RcppGlueWrapperGenerator
ICustomFunctionWrapper <|- - CustomFunctionWrapperImpl
BaseApiConverter <|- - CppApiWrapperGenerator
BaseApiConverter <|- - PythonCffiWrapperGenerator
CodeFileFilter <|- - HeaderFilter
CodeFileFilter <|- - RcppExportedCppFunctions

WrapperGenerator - -> "converter" IApiConverter
WrapperGenerator - -> "filter" CodeFileFilter
BaseApiConverter - -> "customWrappers" ICustomFunctionWrapper

@enduml

PlantUML version 1.2022.5(Sat Apr 30 20:55:52 AEST 2022)
(GPL source distribution)
Java Runtime: OpenJDK Runtime Environment
JVM: OpenJDK 64-Bit Server VM
Default Encoding: UTF-8
Language: en
Country: AU
--></g></svg>